<mxfile host="Electron" agent="Mozilla/5.0 (Windows NT 10.0; Win64; x64) AppleWebKit/537.36 (KHTML, like Gecko) draw.io/24.7.5 Chrome/126.0.6478.183 Electron/31.3.0 Safari/537.36" version="24.7.5">
  <diagram name="Page-1" id="mZOD_tnza1Ey7wqmkClK">
    <mxGraphModel dx="1537" dy="1334" grid="1" gridSize="10" guides="1" tooltips="1" connect="1" arrows="1" fold="1" page="1" pageScale="1" pageWidth="827" pageHeight="1169" math="0" shadow="0">
      <root>
        <mxCell id="0" />
        <mxCell id="1" parent="0" />
        <mxCell id="mlmWYDQaAf5w4Bjc56NV-7" value="" style="group;strokeWidth=5;" vertex="1" connectable="0" parent="1">
          <mxGeometry x="30.00000000000003" y="250" width="724.44" height="713" as="geometry" />
        </mxCell>
        <mxCell id="mlmWYDQaAf5w4Bjc56NV-2" value="" style="shape=mxgraph.pid.vessels.container,_tank,_cistern;html=1;pointerEvents=1;align=center;verticalLabelPosition=bottom;verticalAlign=top;dashed=0;strokeWidth=5;" vertex="1" parent="mlmWYDQaAf5w4Bjc56NV-7">
          <mxGeometry x="152.51368421052632" y="152.51336898395724" width="381.2842105263158" height="266.89839572192517" as="geometry" />
        </mxCell>
        <mxCell id="mlmWYDQaAf5w4Bjc56NV-3" value="" style="endArrow=blockThin;html=1;rounded=0;endFill=1;strokeWidth=5;" edge="1" parent="mlmWYDQaAf5w4Bjc56NV-7">
          <mxGeometry width="50" height="50" relative="1" as="geometry">
            <mxPoint as="sourcePoint" />
            <mxPoint x="266.8989473684211" y="114.38502673796792" as="targetPoint" />
            <Array as="points">
              <mxPoint x="266.8989473684211" />
            </Array>
          </mxGeometry>
        </mxCell>
        <mxCell id="mlmWYDQaAf5w4Bjc56NV-4" value="" style="shape=mxgraph.pid.pumps.centrifugal_pump_1;html=1;pointerEvents=1;align=center;verticalLabelPosition=bottom;verticalAlign=top;dashed=0;strokeColor=default;strokeWidth=5;fontFamily=Helvetica;fontSize=12;fontColor=default;fillColor=default;" vertex="1" parent="mlmWYDQaAf5w4Bjc56NV-7">
          <mxGeometry x="419.4126315789474" y="571.9251336898396" width="147.40447578947368" height="141.07486631016044" as="geometry" />
        </mxCell>
        <mxCell id="mlmWYDQaAf5w4Bjc56NV-5" value="" style="endArrow=blockThin;html=1;rounded=0;endFill=1;strokeWidth=5;entryX=0.021;entryY=0.424;entryDx=0;entryDy=0;entryPerimeter=0;exitX=0.395;exitY=0.999;exitDx=0;exitDy=0;exitPerimeter=0;" edge="1" parent="mlmWYDQaAf5w4Bjc56NV-7" source="mlmWYDQaAf5w4Bjc56NV-2" target="mlmWYDQaAf5w4Bjc56NV-4">
          <mxGeometry width="50" height="50" relative="1" as="geometry">
            <mxPoint x="38.12842105263158" y="38.12834224598931" as="sourcePoint" />
            <mxPoint x="305.02736842105264" y="152.51336898395724" as="targetPoint" />
            <Array as="points">
              <mxPoint x="305.02736842105264" y="632.9304812834225" />
            </Array>
          </mxGeometry>
        </mxCell>
        <mxCell id="mlmWYDQaAf5w4Bjc56NV-6" value="" style="endArrow=blockThin;html=1;rounded=0;endFill=1;strokeWidth=5;entryX=0.021;entryY=0.424;entryDx=0;entryDy=0;entryPerimeter=0;" edge="1" parent="mlmWYDQaAf5w4Bjc56NV-7">
          <mxGeometry width="50" height="50" relative="1" as="geometry">
            <mxPoint x="568.1134736842106" y="594.8021390374332" as="sourcePoint" />
            <mxPoint x="724.44" y="594.8021390374332" as="targetPoint" />
            <Array as="points" />
          </mxGeometry>
        </mxCell>
        <mxCell id="mlmWYDQaAf5w4Bjc56NV-10" value="LT" style="html=1;outlineConnect=0;align=center;dashed=0;aspect=fixed;shape=mxgraph.pid2inst.discInst;mounting=room;pointerEvents=1;strokeColor=default;strokeWidth=3;verticalAlign=top;fontFamily=Helvetica;fontSize=12;fontColor=default;fillColor=default;" vertex="1" parent="mlmWYDQaAf5w4Bjc56NV-7">
          <mxGeometry x="575" y="220" width="50" height="50" as="geometry" />
        </mxCell>
        <mxCell id="mlmWYDQaAf5w4Bjc56NV-12" value="LT" style="text;html=1;align=center;verticalAlign=middle;resizable=0;points=[];autosize=1;strokeColor=none;fillColor=none;fontFamily=IBM Plex sans;fontSize=24;fontColor=default;" vertex="1" parent="mlmWYDQaAf5w4Bjc56NV-7">
          <mxGeometry x="620" y="270" width="50" height="40" as="geometry" />
        </mxCell>
        <mxCell id="mlmWYDQaAf5w4Bjc56NV-13" value="" style="endArrow=none;html=1;rounded=0;strokeColor=default;strokeWidth=2;align=center;verticalAlign=middle;fontFamily=Helvetica;fontSize=12;fontColor=default;labelBackgroundColor=default;edgeStyle=orthogonalEdgeStyle;exitX=1;exitY=0.631;exitDx=0;exitDy=0;exitPerimeter=0;entryX=0.5;entryY=1;entryDx=0;entryDy=0;" edge="1" parent="mlmWYDQaAf5w4Bjc56NV-7" source="mlmWYDQaAf5w4Bjc56NV-2" target="mlmWYDQaAf5w4Bjc56NV-10">
          <mxGeometry width="50" height="50" relative="1" as="geometry">
            <mxPoint x="533.8" y="320" as="sourcePoint" />
            <mxPoint x="610" y="290" as="targetPoint" />
            <Array as="points">
              <mxPoint x="600" y="321" />
            </Array>
          </mxGeometry>
        </mxCell>
        <mxCell id="mlmWYDQaAf5w4Bjc56NV-16" value="" style="endArrow=none;html=1;rounded=0;strokeColor=default;strokeWidth=2;align=center;verticalAlign=middle;fontFamily=Helvetica;fontSize=12;fontColor=default;labelBackgroundColor=default;edgeStyle=orthogonalEdgeStyle;exitX=1.001;exitY=0.138;exitDx=0;exitDy=0;exitPerimeter=0;entryX=0.5;entryY=0;entryDx=0;entryDy=0;" edge="1" parent="mlmWYDQaAf5w4Bjc56NV-7" source="mlmWYDQaAf5w4Bjc56NV-2" target="mlmWYDQaAf5w4Bjc56NV-10">
          <mxGeometry width="50" height="50" relative="1" as="geometry">
            <mxPoint x="543.8" y="330" as="sourcePoint" />
            <mxPoint x="610" y="280" as="targetPoint" />
            <Array as="points">
              <mxPoint x="544" y="189" />
              <mxPoint x="600" y="189" />
            </Array>
          </mxGeometry>
        </mxCell>
        <mxCell id="mlmWYDQaAf5w4Bjc56NV-8" value="LC" style="html=1;outlineConnect=0;align=center;dashed=0;aspect=fixed;shape=mxgraph.pid2inst.discInst;mounting=room;pointerEvents=1;strokeColor=default;strokeWidth=3;verticalAlign=top;fontFamily=Helvetica;fontSize=12;fontColor=default;fillColor=default;" vertex="1" parent="1">
          <mxGeometry x="599" y="110" width="50" height="50" as="geometry" />
        </mxCell>
        <mxCell id="mlmWYDQaAf5w4Bjc56NV-9" value="" style="verticalLabelPosition=bottom;align=center;html=1;verticalAlign=top;pointerEvents=1;dashed=0;shape=mxgraph.pid2valves.valve;valveType=gate;actuator=diaph;strokeColor=default;strokeWidth=3;fontFamily=Helvetica;fontSize=12;fontColor=default;fillColor=default;" vertex="1" parent="1">
          <mxGeometry x="89" y="180" width="100" height="100" as="geometry" />
        </mxCell>
        <mxCell id="mlmWYDQaAf5w4Bjc56NV-11" value="LC" style="text;html=1;align=center;verticalAlign=middle;resizable=0;points=[];autosize=1;strokeColor=none;fillColor=none;fontFamily=IBM Plex sans;fontSize=24;fontColor=default;" vertex="1" parent="1">
          <mxGeometry x="599" y="170" width="50" height="40" as="geometry" />
        </mxCell>
        <mxCell id="mlmWYDQaAf5w4Bjc56NV-15" value="" style="endArrow=none;dashed=1;html=1;dashPattern=1 3;strokeWidth=2;rounded=0;strokeColor=default;align=center;verticalAlign=middle;fontFamily=Helvetica;fontSize=12;fontColor=default;labelBackgroundColor=default;entryX=0;entryY=0.5;entryDx=0;entryDy=0;exitX=0.5;exitY=0.1;exitDx=0;exitDy=0;exitPerimeter=0;edgeStyle=orthogonalEdgeStyle;" edge="1" parent="1" source="mlmWYDQaAf5w4Bjc56NV-9" target="mlmWYDQaAf5w4Bjc56NV-8">
          <mxGeometry width="50" height="50" relative="1" as="geometry">
            <mxPoint x="409" y="200" as="sourcePoint" />
            <mxPoint x="459" y="150" as="targetPoint" />
            <Array as="points">
              <mxPoint x="139" y="135" />
            </Array>
          </mxGeometry>
        </mxCell>
        <mxCell id="mlmWYDQaAf5w4Bjc56NV-17" value="" style="endArrow=none;dashed=1;html=1;dashPattern=1 3;strokeWidth=2;rounded=0;strokeColor=default;align=center;verticalAlign=middle;fontFamily=Helvetica;fontSize=12;fontColor=default;labelBackgroundColor=default;entryX=1;entryY=0.5;entryDx=0;entryDy=0;exitX=1;exitY=0.5;exitDx=0;exitDy=0;edgeStyle=orthogonalEdgeStyle;" edge="1" parent="1" source="mlmWYDQaAf5w4Bjc56NV-8" target="mlmWYDQaAf5w4Bjc56NV-10">
          <mxGeometry width="50" height="50" relative="1" as="geometry">
            <mxPoint x="149" y="200" as="sourcePoint" />
            <mxPoint x="609" y="145" as="targetPoint" />
            <Array as="points">
              <mxPoint x="739" y="135" />
              <mxPoint x="739" y="495" />
            </Array>
          </mxGeometry>
        </mxCell>
      </root>
    </mxGraphModel>
  </diagram>
</mxfile>
